<svg xmlns="http://www.w3.org/2000/svg" width="64" height="64" viewBox="0 0 640 640" shape-rendering="geometricPrecision" text-rendering="geometricPrecision" image-rendering="optimizeQuality" fill-rule="evenodd" clip-rule="evenodd"><path d="M546.29 93.71c124.95 124.939 124.95 327.642 0 452.58-124.95 124.95-327.642 124.95-452.58 0-124.95-124.94-124.95-327.63 0-452.58 124.939-124.95 327.642-124.95 452.58 0zm-59.989 176.482c26.859-.213 48.591 21.402 48.532 48.272-.059 26.859-21.886 48.816-48.756 49.016l-117.816.827-.815 117.946c-.225 26.646-22.17 48.225-49.017 48.19-26.835-.036-48.414-21.674-48.19-48.32l.816-117.13-117.356.814c-26.859.213-48.591-21.402-48.532-48.272.059-26.859 21.886-48.816 48.756-49.016l117.816-.827.815-117.946c.224-26.646 22.17-48.225 49.016-48.19 26.835.036 48.414 21.674 48.19 48.32l-.815 117.13 117.356-.814z"/></svg>