<svg xmlns="http://www.w3.org/2000/svg" width="64" height="64" shape-rendering="geometricPrecision" text-rendering="geometricPrecision" image-rendering="optimizeQuality" fill-rule="evenodd" clip-rule="evenodd" viewBox="0 0 640 640"><path d="M587.062 640H52.937V0H457.41l129.651 137.683V640zM153.805 223.585h218.07c9.898 0 18 8.079 18 17.988v66.674l114.332-58.205V439.54l-114.332-64.194v84.297c0 9.91-8.102 18-18 18h-218.07c-9.91 0-18-8.09-18-18v-218.07c0-9.91 8.09-17.989 18-17.989zm93.013 65.091V412.54l61.938-61.926-61.938-61.937zm296.803 305.366V168.545H425.474V40.772H96.875v553.271h446.746z"/></svg>