<?xml version="1.0" encoding="UTF-8" standalone="no"?>
<svg
   xmlns:dc="http://purl.org/dc/elements/1.1/"
   xmlns:cc="http://creativecommons.org/ns#"
   xmlns:rdf="http://www.w3.org/1999/02/22-rdf-syntax-ns#"
   xmlns:svg="http://www.w3.org/2000/svg"
   xmlns="http://www.w3.org/2000/svg"
   xmlns:xlink="http://www.w3.org/1999/xlink"
   xmlns:sodipodi="http://sodipodi.sourceforge.net/DTD/sodipodi-0.dtd"
   xmlns:inkscape="http://www.inkscape.org/namespaces/inkscape"
   width="96"
   height="96"
   viewBox="0 0 960 960"
   version="1.1"
   id="svg4"
   sodipodi:docname="voicerecorderElement.svg"
   style="clip-rule:evenodd;fill-rule:evenodd;image-rendering:optimizeQuality;shape-rendering:geometricPrecision;text-rendering:geometricPrecision"
   inkscape:version="0.92.4 (33fec40, 2019-01-16)">
  <metadata
     id="metadata10">
    <rdf:RDF>
      <cc:Work
         rdf:about="">
        <dc:format>image/svg+xml</dc:format>
        <dc:type
           rdf:resource="http://purl.org/dc/dcmitype/StillImage" />
        <dc:title></dc:title>
      </cc:Work>
    </rdf:RDF>
  </metadata>
  <defs
     id="defs8">
    <inkscape:perspective
       sodipodi:type="inkscape:persp3d"
       inkscape:vp_x="117.96611 : 808.81356 : 1"
       inkscape:vp_y="0 : 1000 : 0"
       inkscape:vp_z="560.00001 : 754.57627 : 1"
       inkscape:persp3d-origin="480 : 320 : 1"
       id="perspective958" />
    <linearGradient
       inkscape:collect="always"
       id="linearGradient818">
      <stop
         style="stop-color:#cbcbcb;stop-opacity:1"
         offset="0"
         id="stop814" />
      <stop
         style="stop-color:#eeeeee;stop-opacity:0"
         offset="1"
         id="stop816" />
    </linearGradient>
    <linearGradient
       inkscape:collect="always"
       xlink:href="#linearGradient818"
       id="linearGradient820"
       x1="16.694916"
       y1="480"
       x2="943.30508"
       y2="480"
       gradientUnits="userSpaceOnUse"
       gradientTransform="matrix(0.33187494,0,0,2.0127118,-410.14742,-1448.8137)" />
    <linearGradient
       inkscape:collect="always"
       xlink:href="#linearGradient818"
       id="linearGradient4567"
       x1="482.37415"
       y1="451.52542"
       x2="481.69366"
       y2="229.15254"
       gradientUnits="userSpaceOnUse" />
  </defs>
  <sodipodi:namedview
     pagecolor="#ffffff"
     bordercolor="#666666"
     borderopacity="1"
     objecttolerance="10"
     gridtolerance="10"
     guidetolerance="10"
     inkscape:pageopacity="0"
     inkscape:pageshadow="2"
     inkscape:window-width="1920"
     inkscape:window-height="1047"
     id="namedview6"
     showgrid="false"
     inkscape:zoom="5.6568542"
     inkscape:cx="55.128088"
     inkscape:cy="46.116938"
     inkscape:window-x="0"
     inkscape:window-y="33"
     inkscape:window-maximized="1"
     inkscape:current-layer="svg4"
     showguides="true"
     inkscape:snap-text-baseline="false"
     inkscape:snap-nodes="false" />
  <text
     xml:space="preserve"
     style="font-style:normal;font-weight:normal;font-size:200px;line-height:1.25;font-family:sans-serif;letter-spacing:0px;word-spacing:0px;fill:#000000;fill-opacity:1;stroke:none;stroke-width:10;"
     x="74.78553"
     y="634.01178"
     id="text1148"><tspan
       sodipodi:role="line"
       id="tspan1146"
       x="74.78553"
       y="869.94928"
       style="stroke-width:10;font-size:200px;" /></text>
  <flowRoot
     xml:space="preserve"
     id="flowRoot1194"
     style="fill:black;fill-opacity:1;stroke:none;font-family:sans-serif;font-style:normal;font-weight:normal;font-size:26.66666667px;line-height:1.25;letter-spacing:0px;word-spacing:0px"><flowRegion
       id="flowRegion1196"><rect
         id="rect1198"
         width="71.142136"
         height="38.735069"
         x="-43.337257"
         y="20.447437" /></flowRegion><flowPara
       id="flowPara1200" /></flowRoot>  <text
     xml:space="preserve"
     style="font-style:normal;font-weight:normal;font-size:133.33332825px;line-height:1.25;font-family:sans-serif;letter-spacing:0px;word-spacing:0px;fill:#000000;fill-opacity:1;stroke:none;stroke-width:10"
     x="77.781746"
     y="829.18524"
     id="text1917"><tspan
       sodipodi:role="line"
       id="tspan1915"
       x="77.781746"
       y="947.15399"
       style="stroke-width:10" /></text>
  <g
     id="g2015"
     transform="translate(0,55.070574)">
    <g
       id="g2006">
      <g
         style="clip-rule:evenodd;fill-rule:evenodd;image-rendering:optimizeQuality;shape-rendering:geometricPrecision;text-rendering:geometricPrecision"
         id="g1961"
         transform="matrix(0.1146789,0,0,0.1146789,330,73.29284)">
        <path
           id="path1950"
           d="m 1412,2993 -3.8537,1156.7881 c -0.1933,57.9997 -47,104 -104,104 -58,0 -104.1899,-47.0003 -104,-104 L 1204,2993 C 885,2968 598,2827 384,2613 147,2376 0,2049 0,1689 c 0,-58 47,-104 104,-104 58,0 104,47 104,104 0,302 124,577 323,777 199,199 474,323 777,323 302,0 577,-124 777,-323 199,-199 323,-474 323,-777 0,-58 47,-104 104,-104 58,0 104,47 104,104 0,360 -147,687 -384,924 -214,214 -501,355 -820,380 z M 1315,0 c 200,0 382,82 514,214 132,132 214,314 214,514 v 941 c 0,200 -82,382 -214,514 -132,132 -314,214 -514,214 -200,0 -382,-82 -514,-214 C 669,2051 587,1869 587,1669 V 728 C 587,528 669,346 801,214 933,82 1115,0 1315,0 Z m 366,361 c -94,-94 -224,-152 -366,-152 -143,0 -272,58 -366,152 -94,94 -152,224 -152,366 v 941 c 0,143 58,272 152,366 94,94 224,152 366,152 143,0 272,-58 366,-152 94,-94 152,-224 152,-366 V 727 c 0,-143 -58,-272 -152,-366 z"
           inkscape:connector-curvature="0"
           style="fill-rule:nonzero"
           sodipodi:nodetypes="cssscsssscscsssscssssssssssssssssssssss" />
      </g>
      <text
         xml:space="preserve"
         style="font-style:normal;font-weight:normal;font-size:320px;line-height:1.25;font-family:sans-serif;letter-spacing:0px;word-spacing:0px;fill:#000000;fill-opacity:1;stroke:none;stroke-width:10"
         x="476.09375"
         y="555"
         id="text1978"><tspan
           sodipodi:role="line"
           x="476.09375"
           y="555"
           style="font-style:normal;font-variant:normal;font-weight:normal;font-stretch:normal;font-size:240px;font-family:sans-serif;-inkscape-font-specification:'sans-serif, Normal';font-variant-ligatures:normal;font-variant-caps:normal;font-variant-numeric:normal;font-feature-settings:normal;text-align:center;writing-mode:lr-tb;text-anchor:middle;stroke-width:10"
           id="tspan1980">Vo ce</tspan></text>
    </g>
    <text
       id="text1978-2"
       y="773.82153"
       x="470.58362"
       style="font-style:normal;font-weight:normal;font-size:290.72555542px;line-height:1.25;font-family:sans-serif;letter-spacing:0px;word-spacing:0px;clip-rule:evenodd;fill:#000000;fill-opacity:1;fill-rule:evenodd;stroke:none;stroke-width:9.08517361;image-rendering:optimizeQuality;shape-rendering:geometricPrecision;text-rendering:geometricPrecision"
       xml:space="preserve"><tspan
         id="tspan1980-2"
         style="font-style:normal;font-variant:normal;font-weight:normal;font-stretch:normal;font-size:193.81703186px;font-family:sans-serif;-inkscape-font-specification:'sans-serif, Normal';font-variant-ligatures:normal;font-variant-caps:normal;font-variant-numeric:normal;font-feature-settings:normal;text-align:center;writing-mode:lr-tb;text-anchor:middle;stroke-width:9.08517361"
         y="773.82153"
         x="470.58362"
         sodipodi:role="line">Recorder</tspan></text>
  </g>
</svg>
